<svg width="30" height="31" viewBox="0 0 30 31" fill="none" xmlns="http://www.w3.org/2000/svg">
<path d="M25.0479 21.5704C28.2399 18.7268 30 15.4999 30 15.4999C30 15.4999 24.375 5.18745 15 5.18745C13.0962 5.18745 11.347 5.61274 9.76813 6.29058L11.2135 7.73596C12.3934 7.31215 13.6583 7.06245 15 7.06245C18.9738 7.06245 22.2731 9.25279 24.6898 11.6695C25.8819 12.8616 26.8085 14.0598 27.4364 14.9607C27.5727 15.1564 27.6945 15.3372 27.8012 15.4999C27.6945 15.6627 27.5727 15.8435 27.4364 16.0392C26.8085 16.9401 25.8819 18.1383 24.6898 19.3304C24.3808 19.6394 24.0573 19.9447 23.7198 20.2423L25.0479 21.5704Z" fill="#2D31A6" fill-opacity="0.2"/>
<path d="M21.1828 17.7052C21.4286 17.016 21.5625 16.2736 21.5625 15.4999C21.5625 11.8756 18.6244 8.93745 15 8.93745C14.2263 8.93745 13.484 9.07132 12.7947 9.31718L14.3366 10.859C14.5533 10.8283 14.7748 10.8124 15 10.8124C17.5888 10.8124 19.6875 12.9111 19.6875 15.4999C19.6875 15.7251 19.6716 15.9466 19.6409 16.1634L21.1828 17.7052Z" fill="#2D31A6" fill-opacity="0.2"/>
<path d="M15.6635 20.1409L17.2053 21.6827C16.5161 21.9286 15.7737 22.0624 15 22.0624C11.3756 22.0624 8.4375 19.1243 8.4375 15.4999C8.4375 14.7263 8.57138 13.9839 8.81724 13.2946L10.3591 14.8365C10.3284 15.0532 10.3125 15.2747 10.3125 15.4999C10.3125 18.0888 12.4112 20.1874 15 20.1874C15.2252 20.1874 15.4467 20.1716 15.6635 20.1409Z" fill="#2D31A6" fill-opacity="0.2"/>
<path d="M6.2802 10.7576C5.94273 11.0551 5.61925 11.3605 5.3102 11.6695C4.11808 12.8616 3.19155 14.0598 2.56364 14.9607C2.42726 15.1564 2.30555 15.3372 2.19881 15.4999C2.30555 15.6627 2.42726 15.8435 2.56364 16.0392C3.19155 16.9401 4.11808 18.1383 5.3102 19.3304C7.72693 21.7471 11.0262 23.9374 15 23.9374C16.3418 23.9374 17.6066 23.6877 18.7865 23.2639L20.2319 24.7093C18.6531 25.3872 16.9039 25.8124 15 25.8124C5.625 25.8124 0 15.4999 0 15.4999C0 15.4999 1.76009 12.2731 4.95209 9.42949L6.2802 10.7576Z" fill="#2D31A6" fill-opacity="0.2"/>
<path d="M25.5871 27.4129L3.08709 4.91286L4.41291 3.58704L26.9129 26.087L25.5871 27.4129Z" fill="#2D31A6" fill-opacity="0.2"/>
</svg>
