<svg width="633" height="441" viewBox="0 0 633 441" fill="none" xmlns="http://www.w3.org/2000/svg">
<g clip-path="url(#clip0_0_154)">
<path d="M126.121 441C195.776 441 252.242 436.706 252.242 431.408C252.242 426.111 195.776 421.817 126.121 421.817C56.4663 421.817 0 426.111 0 431.408C0 436.706 56.4663 441 126.121 441Z" fill="#E6E6E6"/>
<path d="M96.4046 97.8501C118.353 88.5021 145.691 94.4249 172.389 98.5356C172.638 93.5576 175.649 87.499 172.495 84.026C168.662 79.8067 169.015 75.3733 171.321 70.9145C177.218 59.5124 168.769 47.38 160.238 37.2921C158.315 35.0234 155.885 33.2409 153.145 32.0893C150.405 30.9377 147.433 30.4496 144.469 30.6644L128.666 31.7947C124.82 32.0698 121.15 33.5142 118.147 35.9349C115.144 38.3555 112.951 41.6368 111.861 45.3398C108.087 50.4787 106.068 55.6033 107.339 60.7012C101.687 64.5689 100.737 69.2376 103.277 74.5007C105.431 77.8145 105.408 81.0403 103.179 84.1767C100.252 88.1755 98.0106 92.6342 96.5459 97.3701L96.4046 97.8501Z" fill="#2F2E41"/>
<path d="M618 381.237H170.655C166.677 381.237 162.862 379.655 160.049 376.838C157.236 374.021 155.656 370.201 155.656 366.218C317.818 347.346 476.933 347.346 633 366.218C633 370.201 631.42 374.021 628.607 376.838C625.794 379.655 621.978 381.237 618 381.237Z" fill="#2F2E41"/>
<path d="M633 367.101L155.656 366.218L210.978 273.007L211.243 272.565V67.1384C211.243 64.645 211.733 62.1759 212.686 59.8723C213.639 57.5686 215.035 55.4754 216.796 53.7123C218.557 51.9492 220.647 50.5506 222.948 49.5965C225.249 48.6424 227.714 48.1514 230.204 48.1517H555.804C558.294 48.1514 560.76 48.6424 563.061 49.5965C565.361 50.5506 567.452 51.9492 569.213 53.7123C570.973 55.4754 572.37 57.5686 573.323 59.8723C574.276 62.1759 574.766 64.645 574.766 67.1384V273.978L633 367.101Z" fill="#3F3D56"/>
<path d="M229.772 61.4044C228.135 61.4062 226.565 62.0584 225.407 63.2179C224.249 64.3773 223.598 65.9493 223.596 67.589V254.895C223.598 256.534 224.249 258.106 225.407 259.266C226.565 260.425 228.135 261.077 229.772 261.079H558.884C560.521 261.077 562.091 260.425 563.249 259.266C564.407 258.106 565.058 256.534 565.06 254.895V67.589C565.058 65.9493 564.407 64.3774 563.249 63.218C562.091 62.0585 560.521 61.4063 558.884 61.4044H229.772Z" fill="white"/>
<path d="M231.151 285.818C230.645 285.818 230.15 285.964 229.724 286.238C229.298 286.511 228.959 286.9 228.746 287.36L211.7 324.468C211.514 324.872 211.433 325.316 211.464 325.759C211.494 326.203 211.636 326.631 211.875 327.006C212.115 327.38 212.444 327.688 212.834 327.901C213.223 328.115 213.66 328.226 214.104 328.226H572.585C573.036 328.226 573.48 328.111 573.874 327.891C574.268 327.671 574.599 327.354 574.836 326.969C575.074 326.585 575.209 326.146 575.229 325.695C575.249 325.243 575.154 324.794 574.952 324.39L556.423 287.283C556.204 286.842 555.867 286.47 555.448 286.212C555.03 285.953 554.548 285.816 554.056 285.818H231.151Z" fill="#2F2E41"/>
<path d="M393.004 58.3121C395.197 58.3121 396.975 56.5321 396.975 54.3363C396.975 52.1405 395.197 50.3604 393.004 50.3604C390.811 50.3604 389.034 52.1405 389.034 54.3363C389.034 56.5321 390.811 58.3121 393.004 58.3121Z" fill="white"/>
<path d="M357.769 335.295C357.187 335.295 356.621 335.488 356.159 335.842C355.698 336.197 355.365 336.693 355.213 337.256L350.937 353.159C350.831 353.552 350.817 353.964 350.896 354.363C350.975 354.762 351.145 355.138 351.392 355.461C351.639 355.784 351.957 356.045 352.321 356.225C352.685 356.405 353.086 356.499 353.493 356.499H434.812C435.234 356.499 435.65 356.398 436.025 356.204C436.4 356.011 436.723 355.73 436.968 355.386C437.213 355.041 437.372 354.644 437.432 354.225C437.492 353.807 437.451 353.381 437.313 352.981L431.815 337.078C431.635 336.557 431.297 336.106 430.849 335.786C430.401 335.467 429.864 335.295 429.314 335.295H357.769Z" fill="#2F2E41"/>
<path d="M574.766 269.473V273.006H210.978L211.252 272.565V269.473H574.766Z" fill="#2F2E41"/>
<path d="M564.619 123.692C598.73 123.692 626.382 96.0029 626.382 61.8462C626.382 27.6895 598.73 0 564.619 0C530.508 0 502.855 27.6895 502.855 61.8462C502.855 96.0029 530.508 123.692 564.619 123.692Z" fill="#A4BCFD"/>
<path d="M590.207 88.7934H539.031C538.095 88.7925 537.198 88.4199 536.536 87.7573C535.875 87.0947 535.503 86.1964 535.502 85.2594V54.3363C535.503 53.3993 535.875 52.501 536.537 51.8384C537.198 51.1759 538.095 50.8032 539.031 50.8022H590.207C591.142 50.8032 592.039 51.1759 592.701 51.8384C593.363 52.501 593.735 53.3993 593.736 54.3363V85.2593C593.735 86.1964 593.363 87.0947 592.701 87.7573C592.039 88.4199 591.142 88.7925 590.207 88.7934ZM539.031 54.3363V85.2594H590.209L590.207 54.3363L539.031 54.3363Z" fill="white"/>
<path d="M580.501 54.3363H548.737V40.2C548.737 29.9611 555.416 22.5297 564.619 22.5297C573.821 22.5297 580.501 29.9611 580.501 40.2L580.501 54.3363ZM552.266 50.8022H576.972V40.2C576.972 31.8769 571.892 26.0637 564.619 26.0637C557.346 26.0637 552.266 31.8769 552.266 40.2L552.266 50.8022Z" fill="white"/>
<path d="M564.619 72.4483C566.568 72.4483 568.148 70.8661 568.148 68.9143C568.148 66.9625 566.568 65.3802 564.619 65.3802C562.67 65.3802 561.09 66.9625 561.09 68.9143C561.09 70.8661 562.67 72.4483 564.619 72.4483Z" fill="white"/>
<path d="M521.503 197.547H267.153C265.904 197.546 264.707 197.048 263.824 196.164C262.941 195.28 262.445 194.081 262.443 192.831V129.653C262.445 128.403 262.941 127.204 263.824 126.32C264.707 125.435 265.904 124.938 267.153 124.937H521.503C522.751 124.938 523.949 125.435 524.832 126.32C525.715 127.204 526.211 128.403 526.213 129.653V192.831C526.211 194.081 525.715 195.28 524.832 196.164C523.949 197.048 522.751 197.546 521.503 197.547ZM267.153 126.823C266.404 126.824 265.686 127.122 265.156 127.653C264.626 128.183 264.328 128.903 264.327 129.653V192.831C264.328 193.581 264.626 194.3 265.156 194.831C265.686 195.361 266.404 195.66 267.153 195.66H521.503C522.252 195.66 522.97 195.361 523.5 194.831C524.03 194.3 524.328 193.581 524.329 192.831V129.653C524.328 128.903 524.03 128.183 523.5 127.653C522.97 127.122 522.252 126.824 521.503 126.823L267.153 126.823Z" fill="#E6E6E6"/>
<path d="M306.674 178.03C317.27 178.03 325.861 169.428 325.861 158.818C325.861 148.207 317.27 139.605 306.674 139.605C296.077 139.605 287.487 148.207 287.487 158.818C287.487 169.428 296.077 178.03 306.674 178.03Z" fill="#E6E6E6"/>
<path d="M350.986 146.009C350.566 146.009 350.149 146.091 349.761 146.252C349.372 146.412 349.019 146.648 348.722 146.945C348.424 147.243 348.188 147.596 348.027 147.985C347.866 148.374 347.783 148.791 347.783 149.211C347.783 149.632 347.866 150.049 348.027 150.438C348.188 150.827 348.424 151.18 348.722 151.477C349.019 151.775 349.372 152.011 349.761 152.171C350.149 152.332 350.566 152.414 350.986 152.414H501.739C502.587 152.414 503.4 152.076 504 151.476C504.6 150.875 504.937 150.061 504.937 149.211C504.937 148.362 504.6 147.548 504 146.947C503.4 146.347 502.587 146.009 501.739 146.009H350.986Z" fill="#E6E6E6"/>
<path d="M350.986 165.222C350.138 165.222 349.325 165.559 348.725 166.16C348.125 166.76 347.788 167.575 347.788 168.424C347.788 169.273 348.125 170.088 348.725 170.688C349.325 171.289 350.138 171.626 350.986 171.626H415.855C416.704 171.626 417.517 171.289 418.117 170.688C418.716 170.088 419.053 169.273 419.053 168.424C419.053 167.575 418.716 166.76 418.117 166.16C417.517 165.559 416.704 165.222 415.855 165.222H350.986Z" fill="#E6E6E6"/>
<path d="M210.352 166.517L163.334 191.548L162.739 170.689C178.085 168.124 192.686 163.657 206.186 156.386L211.104 144.22C211.64 142.895 212.51 141.731 213.631 140.845C214.751 139.958 216.083 139.378 217.495 139.162C218.906 138.946 220.35 139.102 221.684 139.613C223.017 140.125 224.195 140.975 225.102 142.08C226.428 143.697 227.091 145.758 226.957 147.846C226.822 149.934 225.9 151.893 224.377 153.325L210.352 166.517Z" fill="#FFB8B8"/>
<path d="M95.4674 311.035C95.1244 309.775 95.0516 308.457 95.2537 307.167C95.4559 305.877 95.9284 304.645 96.6403 303.551L106.969 287.678C109.412 283.924 113.16 281.212 117.487 280.069C121.814 278.926 126.411 279.433 130.385 281.492C126.044 288.891 126.649 295.382 131.884 301.022C123.758 304.995 116.247 310.122 109.585 316.245C108.368 317.075 106.972 317.602 105.511 317.783C104.05 317.963 102.567 317.791 101.186 317.281C99.8045 316.771 98.5649 315.939 97.5703 314.852C96.5756 313.765 95.8546 312.457 95.4674 311.035Z" fill="#2F2E41"/>
<path d="M212.494 290.281C210.931 292.89 208.725 295.052 206.087 296.561C203.449 298.069 200.468 298.874 197.43 298.897L128.814 299.417L125.838 282.134L156.192 273.195L130.6 253.528L158.572 220.75L209.38 268.168C212.35 270.939 214.279 274.648 214.846 278.673C215.413 282.698 214.582 286.796 212.494 290.281Z" fill="#2F2E41"/>
<path d="M118.101 408.479H102.031C87.6032 309.448 72.9167 210.139 116.315 173.073L167.5 181.416L160.953 224.922L132.385 257.7L118.101 408.479Z" fill="#2F2E41"/>
<path d="M132.227 430.913C130.969 431.256 129.653 431.329 128.364 431.127C127.076 430.925 125.845 430.452 124.753 429.739L107.305 427.391C103.555 424.945 100.847 421.191 99.7052 416.859C98.5635 412.526 99.0696 407.923 101.125 403.943C108.515 408.29 114.996 407.683 120.629 402.441C124.609 410.488 131.167 409.997 137.429 416.777C138.258 417.994 138.785 419.393 138.965 420.856C139.145 422.319 138.974 423.804 138.465 425.187C137.956 426.57 137.124 427.811 136.039 428.807C134.954 429.803 133.647 430.525 132.227 430.913Z" fill="#2F2E41"/>
<path d="M156.192 106.92L126.433 99.7689C131.376 89.6386 131.783 78.3666 129.409 66.3948L149.645 65.7988C150.279 80.6861 152.197 94.5946 156.192 106.92Z" fill="#FFB8B8"/>
<path d="M164.371 199.36C142.707 214.142 127.401 199.866 115.72 177.84C117.343 164.363 114.715 148.234 109.848 130.709C107.683 122.979 108.491 114.717 112.113 107.555C115.734 100.392 121.906 94.8498 129.409 92.0213L155.001 102.749C176.732 120.486 181.01 139.698 172.857 159.961L164.371 199.36Z" fill="#A4BCFD"/>
<path d="M102.031 121.82L78.2245 134.335L120.482 159.365L126.361 173.888C126.754 174.858 126.945 175.897 126.923 176.943C126.902 177.988 126.667 179.019 126.235 179.971C125.803 180.923 125.181 181.777 124.408 182.481C123.636 183.184 122.728 183.723 121.74 184.064C120.618 184.452 119.421 184.574 118.243 184.421C117.066 184.268 115.94 183.844 114.953 183.183C113.966 182.521 113.146 181.64 112.556 180.608C111.966 179.576 111.623 178.422 111.554 177.235L110.959 167.113L57.2506 149.366C55.4411 148.768 53.7911 147.765 52.4258 146.434C51.0604 145.103 50.0154 143.478 49.3699 141.683C48.4291 139.066 48.3812 136.211 49.2338 133.564C50.0863 130.917 51.7912 128.627 54.0816 127.054L97.27 97.385L102.031 121.82Z" fill="#FFB8B8"/>
<path d="M125.838 124.204C115.909 119.846 106.881 124.58 95.4845 128.375L93.699 96.789C105.015 90.7498 115.804 89.1215 125.838 93.8093L125.838 124.204Z" fill="#A4BCFD"/>
<path d="M137.715 81.4445C148.209 81.4445 156.715 72.9267 156.715 62.4195C156.715 51.9122 148.209 43.3944 137.715 43.3944C127.222 43.3944 118.716 51.9122 118.716 62.4195C118.716 72.9267 127.222 81.4445 137.715 81.4445Z" fill="#FFB8B8"/>
<path d="M160.445 60.019C141.634 61.8639 127.3 58.7832 118.139 50.0117V42.9477H158.849L160.445 60.019Z" fill="#2F2E41"/>
</g>
<defs>
<clipPath id="clip0_0_154">
<rect width="633" height="441" fill="white"/>
</clipPath>
</defs>
</svg>
