<svg width="663" height="522" viewBox="0 0 663 522" fill="none" xmlns="http://www.w3.org/2000/svg">
<path d="M218.796 315.973C301.76 315.973 369.016 248.786 369.016 165.907C369.016 83.0277 301.76 15.8408 218.796 15.8408C135.831 15.8408 68.5753 83.0277 68.5753 165.907C68.5753 248.786 135.831 315.973 218.796 315.973Z" fill="#F2F2F2"/>
<path d="M393.015 311.533C408.725 311.533 421.46 298.811 421.46 283.118C421.46 267.425 408.725 254.703 393.015 254.703C377.306 254.703 364.571 267.425 364.571 283.118C364.571 298.811 377.306 311.533 393.015 311.533Z" fill="#F2F2F2"/>
<path d="M536.125 375.467C542.507 375.467 547.68 370.298 547.68 363.923C547.68 357.548 542.507 352.379 536.125 352.379C529.743 352.379 524.569 357.548 524.569 363.923C524.569 370.298 529.743 375.467 536.125 375.467Z" fill="#F2F2F2"/>
<path d="M338.882 359.487C267.084 359.49 204.615 305.985 195.386 233.008L197.15 232.785C206.264 304.862 267.973 357.707 338.883 357.711C344.908 357.711 350.927 357.331 356.904 356.575C435.113 346.705 490.702 275.114 480.822 196.986L482.586 196.763C492.588 275.862 436.308 348.345 357.127 358.337C351.076 359.102 344.982 359.486 338.882 359.487Z" fill="#3F3D56"/>
<path d="M342.737 389.188H314.468C313.864 389.189 313.267 389.054 312.723 388.792C312.179 388.53 311.701 388.149 311.326 387.676C310.955 387.216 310.693 386.677 310.56 386.101C310.428 385.525 310.427 384.926 310.559 384.35C313.242 372.523 313.083 360.23 310.097 348.476C309.893 347.664 309.951 346.808 310.262 346.031C310.574 345.254 311.123 344.595 311.831 344.148C321.611 338.096 332.26 338.285 344.389 344.727C344.94 345.017 345.417 345.43 345.782 345.935C346.147 346.439 346.391 347.021 346.494 347.635C348.502 360.256 348.573 373.108 346.702 385.75C346.569 386.705 346.094 387.58 345.365 388.212C344.636 388.844 343.703 389.191 342.737 389.188Z" fill="#A4BCFD"/>
<path d="M213.85 238.234H185.581C184.977 238.235 184.38 238.1 183.836 237.838C183.292 237.576 182.814 237.195 182.439 236.722C182.068 236.261 181.806 235.723 181.673 235.147C181.54 234.571 181.54 233.972 181.672 233.396C184.364 221.528 184.195 209.191 181.178 197.401C180.988 196.625 181.034 195.81 181.311 195.06C181.588 194.31 182.083 193.66 182.733 193.194C197.27 182.75 208.718 183.053 216.759 194.096C217.122 194.6 217.362 195.18 217.463 195.792C219.611 208.696 219.73 221.856 217.815 234.796C217.682 235.751 217.207 236.626 216.478 237.258C215.749 237.89 214.815 238.237 213.85 238.234Z" fill="#CCCCCC"/>
<path d="M329.529 362.683H319.804C319.267 362.682 318.752 362.468 318.373 362.088C317.994 361.709 317.781 361.194 317.781 360.658C317.781 360.121 317.994 359.607 318.373 359.227C318.752 358.847 319.267 358.633 319.804 358.632H329.529C330.067 358.632 330.582 358.846 330.963 359.225C331.343 359.605 331.556 360.12 331.556 360.658C331.556 361.195 331.343 361.71 330.963 362.09C330.582 362.47 330.067 362.683 329.529 362.683Z" fill="white"/>
<path d="M341.419 370.687H319.804C319.267 370.686 318.752 370.472 318.373 370.092C317.994 369.712 317.781 369.198 317.781 368.661C317.781 368.125 317.994 367.61 318.373 367.23C318.752 366.851 319.267 366.637 319.804 366.636H341.419C341.956 366.637 342.471 366.851 342.85 367.23C343.23 367.61 343.443 368.125 343.443 368.661C343.443 369.198 343.23 369.712 342.85 370.092C342.471 370.472 341.956 370.686 341.419 370.687Z" fill="white"/>
<path d="M205.086 209.953H195.361C194.824 209.952 194.31 209.738 193.93 209.359C193.551 208.979 193.338 208.464 193.338 207.928C193.338 207.391 193.551 206.877 193.93 206.497C194.31 206.117 194.824 205.903 195.361 205.902H205.086C205.623 205.903 206.138 206.117 206.517 206.497C206.896 206.877 207.109 207.391 207.109 207.928C207.109 208.464 206.896 208.979 206.517 209.359C206.138 209.738 205.623 209.952 205.086 209.953Z" fill="white"/>
<path d="M205.086 217.057H195.361C194.824 217.056 194.31 216.842 193.93 216.462C193.551 216.083 193.338 215.568 193.338 215.031C193.338 214.495 193.551 213.98 193.93 213.601C194.31 213.221 194.824 213.007 195.361 213.006H205.086C205.623 213.007 206.138 213.221 206.517 213.601C206.896 213.98 207.109 214.495 207.109 215.031C207.109 215.568 206.896 216.083 206.517 216.462C206.138 216.842 205.623 217.056 205.086 217.057Z" fill="white"/>
<path d="M205.086 224.161H195.361C194.824 224.16 194.31 223.946 193.93 223.566C193.551 223.186 193.338 222.672 193.338 222.135C193.338 221.599 193.551 221.084 193.93 220.704C194.31 220.325 194.824 220.111 195.361 220.11H205.086C205.623 220.111 206.138 220.325 206.517 220.704C206.896 221.084 207.109 221.599 207.109 222.135C207.109 222.672 206.896 223.186 206.517 223.566C206.138 223.946 205.623 224.16 205.086 224.161Z" fill="white"/>
<path d="M594.327 271.598H503.959C501.537 271.595 499.215 270.632 497.503 268.922C495.79 267.211 494.827 264.892 494.824 262.472V206.871C494.827 204.452 495.79 202.132 497.503 200.422C499.215 198.711 501.537 197.749 503.959 197.746H594.327C596.749 197.749 599.071 198.711 600.783 200.422C602.496 202.132 603.459 204.452 603.462 206.871V262.472C603.459 264.892 602.496 267.211 600.783 268.922C599.071 270.633 596.749 271.595 594.327 271.598Z" fill="#E6E6E6"/>
<path d="M558.422 264.436H510.311C508.043 264.433 505.869 263.532 504.265 261.93C502.661 260.328 501.758 258.155 501.756 255.89V213.454C501.758 211.188 502.661 209.016 504.265 207.413C505.869 205.811 508.043 204.91 510.311 204.908H587.975C590.243 204.91 592.417 205.811 594.021 207.413C595.625 209.016 596.527 211.188 596.53 213.454V226.368C596.518 236.461 592.5 246.137 585.356 253.273C578.212 260.41 568.525 264.424 558.422 264.436Z" fill="white"/>
<path d="M580.227 228.144H518.059C517.521 228.144 517.005 227.931 516.625 227.551C516.245 227.171 516.031 226.656 516.031 226.119C516.031 225.582 516.245 225.067 516.625 224.687C517.005 224.307 517.521 224.094 518.059 224.094H580.227C580.765 224.094 581.281 224.307 581.661 224.687C582.041 225.067 582.255 225.582 582.255 226.119C582.255 226.656 582.041 227.171 581.661 227.551C581.281 227.931 580.765 228.144 580.227 228.144Z" fill="#A4BCFD"/>
<path d="M527.783 236.148H518.059C517.522 236.147 517.007 235.933 516.628 235.553C516.248 235.173 516.035 234.659 516.035 234.122C516.035 233.586 516.248 233.071 516.628 232.692C517.007 232.312 517.522 232.098 518.059 232.097H527.783C528.32 232.098 528.835 232.312 529.214 232.692C529.594 233.071 529.807 233.586 529.807 234.122C529.807 234.659 529.594 235.173 529.214 235.553C528.835 235.933 528.32 236.147 527.783 236.148Z" fill="#A4BCFD"/>
<path d="M545.007 244.151H518.059C517.521 244.151 517.005 243.938 516.625 243.558C516.245 243.178 516.031 242.663 516.031 242.126C516.031 241.589 516.245 241.073 516.625 240.694C517.005 240.314 517.521 240.1 518.059 240.1H545.007C545.545 240.1 546.061 240.314 546.441 240.694C546.821 241.073 547.035 241.589 547.035 242.126C547.035 242.663 546.821 243.178 546.441 243.558C546.061 243.938 545.545 244.151 545.007 244.151Z" fill="#A4BCFD"/>
<path d="M491.671 215.735C502.228 215.735 510.787 207.185 510.787 196.638C510.787 186.092 502.228 177.542 491.671 177.542C481.113 177.542 472.554 186.092 472.554 196.638C472.554 207.185 481.113 215.735 491.671 215.735Z" fill="#3F3D56"/>
<path d="M275.273 51.3685C276.539 44.9516 279.057 38.8467 282.684 33.4021C286.312 27.9575 290.977 23.28 296.414 19.6366C307.394 12.2783 320.851 9.5788 333.823 12.132C340.247 13.3961 346.358 15.9118 351.808 19.5354C357.258 23.159 361.941 27.8194 365.588 33.2507C369.235 38.682 371.776 44.7777 373.065 51.1899C374.354 57.602 374.366 64.205 373.1 70.6218L371.355 70.2786C373.82 57.7815 371.214 44.8182 364.111 34.2405C357.008 23.6628 345.99 16.337 333.48 13.8749C320.97 11.4128 307.993 14.0159 297.405 21.1117C286.816 28.2075 279.483 39.2146 277.018 51.7117L275.273 51.3685Z" fill="#3F3D56"/>
<path d="M294.205 82.7885L265.959 83.9572C265.356 83.9834 264.754 83.8728 264.2 83.6337C263.645 83.3946 263.152 83.0331 262.757 82.5765C262.368 82.1316 262.084 81.6044 261.927 81.0344C261.771 80.4643 261.745 79.8663 261.853 79.2851C264.021 67.4779 263.389 55.3277 260.009 43.8084C259.748 42.9274 259.801 41.9833 260.159 41.137C260.517 40.2907 261.157 39.5946 261.971 39.1673C273.541 33.1627 284.381 32.8582 294.189 38.2612C294.703 38.5403 295.15 38.9279 295.499 39.3972C295.848 39.8665 296.09 40.4061 296.209 40.9784C298.762 53.5484 299.374 66.4347 298.024 79.1897C297.93 80.1494 297.492 81.0429 296.79 81.7045C296.087 82.3662 295.169 82.7513 294.205 82.7885Z" fill="#A4BCFD"/>
<path d="M293.009 64.3209L271.412 65.2145C271.146 65.2257 270.88 65.1845 270.63 65.093C270.38 65.0016 270.15 64.8618 269.954 64.6817C269.758 64.5015 269.599 64.2845 269.487 64.0431C269.375 63.8016 269.312 63.5405 269.301 63.2746C269.29 63.0087 269.331 62.7432 269.423 62.4933C269.515 62.2434 269.655 62.0141 269.835 61.8183C270.016 61.6226 270.233 61.4643 270.475 61.3525C270.717 61.2408 270.978 61.1777 271.245 61.1669L292.841 60.2733C293.107 60.2623 293.373 60.3037 293.623 60.3953C293.873 60.4868 294.103 60.6266 294.298 60.8068C294.494 60.9869 294.653 61.2039 294.765 61.4452C294.877 61.6865 294.94 61.9475 294.951 62.2133C294.962 62.479 294.921 62.7444 294.829 62.9941C294.737 63.2439 294.597 63.4732 294.417 63.6689C294.237 63.8646 294.02 64.0229 293.778 64.1348C293.536 64.2467 293.275 64.3099 293.009 64.3209Z" fill="white"/>
<path d="M292.715 57.2233L271.118 58.1169C270.581 58.1391 270.057 57.9472 269.661 57.5834C269.265 57.2196 269.031 56.7136 269.008 56.1769C268.986 55.6401 269.178 55.1165 269.542 54.7213C269.907 54.326 270.413 54.0915 270.95 54.0693L292.547 53.1757C293.084 53.1534 293.609 53.3453 294.004 53.7092C294.4 54.073 294.635 54.5789 294.657 55.1157C294.679 55.6524 294.487 56.176 294.123 56.5713C293.759 56.9665 293.252 57.2011 292.715 57.2233Z" fill="white"/>
<path d="M479.053 73.8517H388.685C386.263 73.849 383.942 72.8867 382.229 71.1759C380.517 69.4652 379.553 67.1457 379.551 64.7263V9.12542C379.553 6.70605 380.517 4.38656 382.229 2.6758C383.942 0.965049 386.263 0.00274272 388.685 0H479.053C481.475 0.00273331 483.797 0.965035 485.509 2.67579C487.222 4.38655 488.185 6.70605 488.188 9.12542V64.7263C488.185 67.1457 487.222 69.4652 485.509 71.176C483.797 72.8867 481.475 73.849 479.053 73.8517Z" fill="#E6E6E6"/>
<path d="M443.149 66.69H395.038C392.769 66.6875 390.595 65.7863 388.991 64.1841C387.387 62.5819 386.485 60.4096 386.482 58.1437V15.7079C386.485 13.442 387.387 11.2697 388.991 9.66755C390.595 8.06538 392.769 7.16418 395.038 7.16168H472.701C474.969 7.1642 477.144 8.06541 478.748 9.66759C480.351 11.2698 481.254 13.4421 481.256 15.7079V28.622C481.245 38.7148 477.226 48.391 470.082 55.5276C462.938 62.6643 453.252 66.6786 443.149 66.69Z" fill="white"/>
<path d="M464.953 30.3986H402.785C402.247 30.3986 401.732 30.1852 401.351 29.8053C400.971 29.4255 400.757 28.9103 400.757 28.3731C400.757 27.8359 400.971 27.3208 401.351 26.9409C401.732 26.5611 402.247 26.3477 402.785 26.3477H464.953C465.491 26.3477 466.007 26.5611 466.387 26.9409C466.767 27.3208 466.981 27.8359 466.981 28.3731C466.981 28.9103 466.767 29.4255 466.387 29.8053C466.007 30.1852 465.491 30.3986 464.953 30.3986Z" fill="#A4BCFD"/>
<path d="M412.51 38.4021H402.785C402.248 38.401 401.733 38.1871 401.354 37.8073C400.975 37.4276 400.762 36.913 400.762 36.3765C400.762 35.8401 400.975 35.3255 401.354 34.9458C401.733 34.566 402.248 34.3521 402.785 34.351H412.51C413.047 34.3521 413.561 34.566 413.941 34.9458C414.32 35.3255 414.533 35.8401 414.533 36.3765C414.533 36.913 414.32 37.4276 413.941 37.8073C413.561 38.1871 413.047 38.401 412.51 38.4021Z" fill="#A4BCFD"/>
<path d="M429.734 46.4056H402.785C402.247 46.4056 401.731 46.1922 401.351 45.8123C400.971 45.4325 400.757 44.9173 400.757 44.3801C400.757 43.8429 400.971 43.3277 401.351 42.9478C401.731 42.5679 402.247 42.3545 402.785 42.3545H429.734C430.271 42.3556 430.785 42.5696 431.165 42.9493C431.544 43.329 431.757 43.8436 431.757 44.3801C431.757 44.9165 431.544 45.4311 431.165 45.8108C430.785 46.1906 430.271 46.4045 429.734 46.4056Z" fill="#A4BCFD"/>
<path d="M390.291 83.4769C395.865 74.5196 393.114 62.7446 384.148 57.1766C375.181 51.6086 363.394 54.3562 357.82 63.3134C352.247 72.2707 354.997 84.0458 363.963 89.6138C372.93 95.1818 384.717 92.4342 390.291 83.4769Z" fill="#3F3D56"/>
<path d="M119.401 222.373C111.558 201.661 112.273 178.684 121.388 158.498C130.503 138.312 147.272 122.57 168.005 114.735C188.739 106.9 211.739 107.614 231.945 116.72C252.152 125.826 267.91 142.577 275.753 163.289L274.09 163.918C270.289 153.88 264.546 144.689 257.19 136.869C249.833 129.048 241.007 122.752 231.214 118.339C221.422 113.927 210.855 111.484 200.118 111.15C189.38 110.817 178.682 112.6 168.634 116.397C158.587 120.194 149.386 125.931 141.557 133.28C133.729 140.629 127.426 149.446 123.009 159.229C118.592 169.011 116.146 179.567 115.813 190.293C115.479 201.02 117.264 211.707 121.065 221.744L119.401 222.373Z" fill="#3F3D56"/>
<path d="M192.517 139.67H164.248C163.644 139.671 163.047 139.536 162.503 139.274C161.959 139.012 161.481 138.631 161.106 138.158C160.735 137.697 160.473 137.159 160.34 136.583C160.207 136.007 160.207 135.408 160.339 134.832C163.015 123.033 162.864 110.769 159.897 99.039C159.687 98.2089 159.751 97.333 160.081 96.5426C160.411 95.7523 160.988 95.0898 161.726 94.6546C171.966 88.6999 182.902 88.8816 194.228 95.1962C194.764 95.4883 195.227 95.8989 195.58 96.3966C195.933 96.8943 196.168 97.466 196.266 98.0682C198.282 110.704 198.355 123.574 196.482 136.232C196.349 137.187 195.874 138.062 195.145 138.694C194.416 139.326 193.482 139.673 192.517 139.67Z" fill="#A4BCFD"/>
<path d="M179.309 112.277H169.584C169.047 112.276 168.532 112.062 168.153 111.682C167.773 111.303 167.56 110.788 167.56 110.252C167.56 109.715 167.773 109.201 168.153 108.821C168.532 108.441 169.047 108.227 169.584 108.226H179.309C179.846 108.227 180.36 108.441 180.74 108.821C181.119 109.201 181.332 109.715 181.332 110.252C181.332 110.788 181.119 111.303 180.74 111.682C180.36 112.062 179.846 112.276 179.309 112.277Z" fill="white"/>
<path d="M191.199 120.281H169.584C169.046 120.281 168.53 120.067 168.15 119.687C167.77 119.308 167.556 118.792 167.556 118.255C167.556 117.718 167.77 117.203 168.15 116.823C168.53 116.443 169.046 116.23 169.584 116.23H191.199C191.736 116.231 192.251 116.445 192.63 116.824C193.009 117.204 193.222 117.719 193.222 118.255C193.222 118.792 193.009 119.306 192.63 119.686C192.251 120.066 191.736 120.28 191.199 120.281Z" fill="white"/>
<path d="M99.5025 221.254H9.13474C6.71289 221.251 4.39102 220.289 2.67851 218.578C0.96601 216.867 0.0027314 214.548 0 212.128V156.528C0.0027314 154.108 0.96601 151.789 2.67851 150.078C4.39102 148.367 6.71289 147.405 9.13474 147.402H99.5025C101.924 147.405 104.246 148.367 105.959 150.078C107.671 151.789 108.635 154.108 108.637 156.528V212.129C108.635 214.548 107.671 216.867 105.959 218.578C104.246 220.289 101.924 221.251 99.5025 221.254Z" fill="#E6E6E6"/>
<path d="M63.5979 214.092H15.487C13.2188 214.09 11.0442 213.188 9.44032 211.586C7.83642 209.984 6.9342 207.812 6.93158 205.546V163.11C6.9342 160.844 7.83642 158.672 9.44032 157.07C11.0442 155.468 13.2188 154.566 15.487 154.564H93.1505C95.4187 154.566 97.5932 155.468 99.197 157.07C100.801 158.672 101.703 160.844 101.706 163.11V176.024C101.694 186.117 97.6754 195.793 90.5314 202.93C83.3873 210.066 73.7011 214.081 63.5979 214.092Z" fill="white"/>
<path d="M85.4029 177.801H23.2344C22.6966 177.801 22.1809 177.587 21.8007 177.207C21.4205 176.828 21.2068 176.312 21.2068 175.775C21.2068 175.238 21.4205 174.723 21.8007 174.343C22.1809 173.963 22.6966 173.75 23.2344 173.75H85.4029C85.9407 173.75 86.4564 173.963 86.8366 174.343C87.2168 174.723 87.4305 175.238 87.4305 175.775C87.4305 176.312 87.2168 176.828 86.8366 177.207C86.4564 177.587 85.9407 177.801 85.4029 177.801Z" fill="#A4BCFD"/>
<path d="M32.9592 185.804H23.2344C22.6974 185.803 22.1827 185.589 21.8034 185.209C21.424 184.83 21.211 184.315 21.211 183.779C21.211 183.242 21.424 182.728 21.8034 182.348C22.1827 181.968 22.6974 181.754 23.2344 181.753H32.9592C33.4962 181.754 34.0108 181.968 34.3902 182.348C34.7695 182.728 34.9825 183.242 34.9825 183.779C34.9825 184.315 34.7695 184.83 34.3902 185.209C34.0108 185.589 33.4962 185.803 32.9592 185.804Z" fill="#A4BCFD"/>
<path d="M50.1829 193.808H23.2344C22.6974 193.807 22.1827 193.593 21.8034 193.213C21.424 192.833 21.211 192.319 21.211 191.782C21.211 191.246 21.424 190.731 21.8034 190.351C22.1827 189.972 22.6974 189.758 23.2344 189.757H50.1829C50.7207 189.757 51.2364 189.97 51.6167 190.35C51.9969 190.73 52.2106 191.245 52.2106 191.782C52.2106 192.319 51.9969 192.835 51.6167 193.214C51.2364 193.594 50.7207 193.808 50.1829 193.808Z" fill="#A4BCFD"/>
<path d="M135.183 229.103C140.757 220.146 138.006 208.371 129.04 202.803C120.073 197.235 108.286 199.982 102.713 208.94C97.1388 217.897 99.8892 229.672 108.856 235.24C117.822 240.808 129.609 238.06 135.183 229.103Z" fill="#3F3D56"/>
<path d="M289.405 192.948H261.135C260.531 192.949 259.935 192.814 259.391 192.552C258.847 192.29 258.369 191.908 257.993 191.436C257.622 190.975 257.361 190.437 257.228 189.861C257.095 189.285 257.095 188.686 257.226 188.11C259.898 176.331 259.752 164.09 256.8 152.378C256.591 151.536 256.662 150.649 257.002 149.852C257.343 149.054 257.935 148.389 258.688 147.958C272.421 140.105 283.295 140.322 291.932 148.621C292.537 149.213 292.936 149.984 293.069 150.819C295.167 163.623 295.269 176.675 293.37 189.51C293.237 190.465 292.762 191.339 292.033 191.972C291.304 192.604 290.37 192.95 289.405 192.948Z" fill="#FF6584"/>
<path d="M277.974 166.443H268.249C267.712 166.442 267.197 166.228 266.818 165.848C266.439 165.469 266.226 164.954 266.226 164.417C266.226 163.881 266.439 163.366 266.818 162.987C267.197 162.607 267.712 162.393 268.249 162.392H277.974C278.511 162.393 279.026 162.607 279.405 162.987C279.784 163.366 279.997 163.881 279.997 164.417C279.997 164.954 279.784 165.469 279.405 165.848C279.026 166.228 278.511 166.442 277.974 166.443Z" fill="white"/>
<path d="M289.864 174.447H268.249C267.711 174.447 267.196 174.233 266.815 173.853C266.435 173.473 266.221 172.958 266.221 172.421C266.221 171.884 266.435 171.369 266.815 170.989C267.196 170.609 267.711 170.395 268.249 170.395H289.864C290.401 170.397 290.916 170.61 291.295 170.99C291.675 171.37 291.888 171.885 291.888 172.421C291.888 172.957 291.675 173.472 291.295 173.852C290.916 174.232 290.401 174.445 289.864 174.447Z" fill="white"/>
</svg>
