<svg width="586" height="369" viewBox="0 0 586 369" fill="none" xmlns="http://www.w3.org/2000/svg">
<g clip-path="url(#clip0_1_58)">
<path d="M586 151.552H585.01V124.39C585.01 122.326 584.604 120.282 583.816 118.374C583.027 116.467 581.871 114.734 580.414 113.274C578.957 111.815 577.227 110.657 575.324 109.867C573.42 109.077 571.379 108.67 569.319 108.67H511.879C509.818 108.67 507.778 109.077 505.874 109.867C503.97 110.657 502.24 111.815 500.783 113.274C499.326 114.734 498.17 116.467 497.382 118.374C496.593 120.282 496.187 122.326 496.187 124.39V273.401C496.187 275.465 496.593 277.509 497.382 279.417C498.17 281.324 499.326 283.057 500.783 284.517C502.24 285.976 503.97 287.134 505.874 287.924C507.778 288.714 509.818 289.121 511.879 289.121H569.319C571.379 289.121 573.42 288.714 575.324 287.924C577.227 287.134 578.957 285.976 580.414 284.517C581.871 283.057 583.027 281.324 583.816 279.417C584.604 277.509 585.01 275.465 585.01 273.401V170.886H586V151.552Z" fill="#3F3D56"/>
<path d="M581.671 125.314V274.108C581.671 277.222 580.436 280.208 578.238 282.41C576.041 284.612 573.06 285.849 569.951 285.849H512.235C510.696 285.849 509.173 285.545 507.751 284.955C506.33 284.365 505.038 283.5 503.95 282.409C502.862 281.319 502 280.025 501.411 278.6C500.823 277.176 500.52 275.649 500.521 274.108V125.314C500.521 122.201 501.755 119.216 503.952 117.015C506.149 114.814 509.128 113.578 512.235 113.578H519.237C518.894 114.425 518.763 115.343 518.857 116.252C518.951 117.162 519.266 118.034 519.775 118.793C520.284 119.551 520.971 120.173 521.776 120.603C522.581 121.033 523.479 121.259 524.392 121.26H557.299C558.213 121.261 559.113 121.038 559.919 120.608C560.726 120.179 561.414 119.557 561.924 118.797C562.433 118.038 562.748 117.164 562.841 116.254C562.933 115.344 562.8 114.425 562.454 113.578H569.951C573.059 113.578 576.039 114.814 578.237 117.015C580.435 119.216 581.67 122.201 581.671 125.314Z" fill="#D0CDE1"/>
<path d="M570.745 189.756H503.652V207.894H570.745V189.756Z" fill="#A4BCFD"/>
<path d="M573.407 204.693H508.444C508.02 204.693 507.614 204.524 507.315 204.224C507.015 203.924 506.847 203.517 506.846 203.093V187.089C506.847 186.665 507.015 186.258 507.315 185.958C507.614 185.658 508.02 185.489 508.444 185.489H573.407C573.831 185.489 574.237 185.658 574.536 185.958C574.836 186.258 575.004 186.665 575.005 187.089V203.093C575.004 203.517 574.836 203.924 574.536 204.224C574.237 204.524 573.831 204.693 573.407 204.693ZM508.444 186.556C508.303 186.556 508.167 186.612 508.068 186.712C507.968 186.812 507.912 186.948 507.911 187.089V203.093C507.912 203.235 507.968 203.37 508.068 203.47C508.167 203.57 508.303 203.626 508.444 203.627H573.407C573.548 203.626 573.684 203.57 573.784 203.47C573.883 203.37 573.939 203.235 573.94 203.093V187.089C573.939 186.948 573.883 186.812 573.784 186.712C573.684 186.612 573.548 186.556 573.407 186.556H508.444Z" fill="#3F3D56"/>
<path d="M519.626 199.892H511.106V200.959H519.626V199.892Z" fill="#3F3D56"/>
<path d="M531.341 199.892H522.821V200.959H531.341V199.892Z" fill="#3F3D56"/>
<path d="M543.055 199.892H534.536V200.959H543.055V199.892Z" fill="#3F3D56"/>
<path d="M554.77 199.892H546.25V200.959H554.77V199.892Z" fill="#3F3D56"/>
<path d="M566.485 199.892H557.965V200.959H566.485V199.892Z" fill="#3F3D56"/>
<path opacity="0.1" d="M581.671 258.979V274.108C581.671 277.222 580.436 280.208 578.238 282.41C576.041 284.612 573.06 285.849 569.951 285.849H512.235C510.696 285.849 509.173 285.545 507.751 284.955C506.33 284.365 505.038 283.5 503.95 282.409C502.862 281.319 502 280.025 501.411 278.6C500.823 277.176 500.52 275.649 500.521 274.108V204.512L581.671 258.979Z" fill="black"/>
<path d="M305.035 245.237H53.1693V369H305.035V245.237Z" fill="#D0CDE1"/>
<path opacity="0.1" d="M241.003 369H54.2343C53.9521 368.999 53.6817 368.886 53.4822 368.687C53.2826 368.487 53.1701 368.216 53.1693 367.933V246.303C53.1701 246.021 53.2826 245.75 53.4821 245.55C53.6817 245.35 53.9521 245.237 54.2343 245.237H56.5985L241.003 369Z" fill="black"/>
<path d="M560.095 261.774H169.784V262.841H560.095V261.774Z" fill="#3F3D56"/>
<path d="M293.182 2.30336H181.632V0H131.051V2.30336H19.0413C18.0504 2.30336 17.0692 2.49889 16.1537 2.87879C15.2382 3.25868 14.4064 3.8155 13.7058 4.51746C13.0051 5.21941 12.4493 6.05275 12.0701 6.96989C11.6909 7.88704 11.4957 8.87004 11.4957 9.86275V162.89C11.4957 164.895 12.2907 166.817 13.7058 168.235C15.1208 169.653 17.0401 170.449 19.0413 170.449H293.182C295.184 170.449 297.103 169.653 298.518 168.235C299.933 166.817 300.728 164.895 300.728 162.89V9.86275C300.728 8.87004 300.533 7.88704 300.154 6.96989C299.774 6.05275 299.219 5.21941 298.518 4.51746C297.817 3.8155 296.986 3.25868 296.07 2.87879C295.155 2.49889 294.173 2.30336 293.182 2.30336Z" fill="#3F3D56"/>
<path d="M290.61 15.6608H21.6143V167.687H290.61V15.6608Z" fill="#D0CDE1"/>
<path d="M155.882 11.5169C157.406 11.5169 158.641 10.2793 158.641 8.75281C158.641 7.22627 157.406 5.98877 155.882 5.98877C154.358 5.98877 153.123 7.22627 153.123 8.75281C153.123 10.2793 154.358 11.5169 155.882 11.5169Z" fill="#A4BCFD"/>
<path d="M101.625 72.3946H95.2356C94.8121 72.3941 94.4061 72.2253 94.1066 71.9253C93.8071 71.6253 93.6386 71.2185 93.6382 70.7942V64.3926C93.6386 63.9683 93.8071 63.5615 94.1066 63.2615C94.4061 62.9615 94.8121 62.7927 95.2356 62.7922H101.625C102.049 62.7927 102.455 62.9615 102.755 63.2615C103.054 63.5615 103.222 63.9683 103.223 64.3926V70.7942C103.222 71.2185 103.054 71.6253 102.755 71.9253C102.455 72.2253 102.049 72.3941 101.625 72.3946ZM95.2356 63.8592C95.0945 63.8593 94.9591 63.9156 94.8593 64.0156C94.7595 64.1156 94.7033 64.2512 94.7032 64.3926V70.7942C94.7033 70.9356 94.7595 71.0712 94.8593 71.1712C94.9591 71.2712 95.0945 71.3275 95.2356 71.3276H101.625C101.767 71.3275 101.902 71.2712 102.002 71.1712C102.102 71.0712 102.158 70.9356 102.158 70.7942V64.3926C102.158 64.2512 102.102 64.1156 102.002 64.0156C101.902 63.9156 101.767 63.8593 101.625 63.8592H95.2356Z" fill="#3F3D56"/>
<path d="M215.577 71.3276H94.1707V72.3946H215.577V71.3276Z" fill="#3F3D56"/>
<path d="M212.382 100.668H184.161V109.203H212.382V100.668Z" fill="#A4BCFD"/>
<path d="M214.512 107.07H188.421C187.997 107.069 187.591 106.9 187.291 106.6C186.992 106.3 186.824 105.894 186.823 105.469V99.0677C186.824 98.6434 186.992 98.2366 187.291 97.9365C187.591 97.6365 187.997 97.4677 188.421 97.4673H214.512C214.936 97.4677 215.342 97.6365 215.641 97.9365C215.941 98.2366 216.109 98.6434 216.11 99.0677V105.469C216.109 105.894 215.941 106.3 215.641 106.6C215.342 106.9 214.936 107.069 214.512 107.07ZM188.421 98.5342C188.279 98.5344 188.144 98.5907 188.044 98.6907C187.944 98.7907 187.888 98.9262 187.888 99.0677V105.469C187.888 105.611 187.944 105.746 188.044 105.846C188.144 105.946 188.279 106.003 188.421 106.003H214.512C214.653 106.003 214.789 105.946 214.889 105.846C214.988 105.746 215.045 105.611 215.045 105.469V99.0677C215.045 98.9262 214.988 98.7907 214.889 98.6907C214.789 98.5907 214.653 98.5344 214.512 98.5342H188.421Z" fill="#3F3D56"/>
<path d="M428.039 110.27H374.79V147.613H428.039V110.27Z" fill="#A4BCFD"/>
<path d="M433.364 144.679H382.245C381.68 144.678 381.139 144.453 380.74 144.053C380.34 143.653 380.116 143.111 380.115 142.545V107.336C380.116 106.771 380.34 106.228 380.74 105.828C381.139 105.428 381.68 105.203 382.245 105.203H433.364C433.928 105.203 434.47 105.428 434.869 105.828C435.268 106.228 435.493 106.771 435.494 107.336V142.545C435.493 143.111 435.268 143.653 434.869 144.053C434.47 144.453 433.928 144.678 433.364 144.679ZM382.245 107.336V142.545H433.365L433.364 107.336H382.245Z" fill="#3F3D56"/>
<path d="M427.506 106.003H425.376C425.376 101.334 423.525 96.8561 420.23 93.5547C416.934 90.2532 412.465 88.3985 407.804 88.3985C403.144 88.3985 398.674 90.2532 395.379 93.5547C392.084 96.8561 390.232 101.334 390.232 106.003H388.102C388.102 100.768 390.178 95.7474 393.873 92.0458C397.568 88.3442 402.579 86.2646 407.804 86.2646C413.03 86.2646 418.041 88.3442 421.736 92.0458C425.431 95.7474 427.506 100.768 427.506 106.003Z" fill="#3F3D56"/>
<path d="M413.129 120.673C413.13 119.744 412.889 118.831 412.43 118.024C411.97 117.217 411.309 116.544 410.51 116.072C409.711 115.6 408.804 115.345 407.876 115.333C406.949 115.32 406.035 115.55 405.224 116C404.413 116.45 403.733 117.105 403.252 117.899C402.771 118.693 402.505 119.6 402.481 120.528C402.457 121.457 402.675 122.376 403.114 123.194C403.554 124.012 404.199 124.701 404.985 125.193V130.919C404.985 131.289 405.058 131.657 405.2 131.999C405.342 132.342 405.549 132.653 405.811 132.916C406.073 133.178 406.383 133.386 406.725 133.528C407.067 133.67 407.434 133.743 407.804 133.743C408.552 133.743 409.269 133.445 409.798 132.916C410.326 132.386 410.623 131.668 410.623 130.919V125.193C411.39 124.715 412.022 124.049 412.46 123.258C412.899 122.467 413.129 121.577 413.129 120.673Z" fill="#3F3D56"/>
<path d="M159.933 300.183H151.413V301.25H159.933V300.183Z" fill="#3F3D56"/>
<path d="M171.647 300.183H163.127V301.25H171.647V300.183Z" fill="#3F3D56"/>
<path d="M183.362 300.183H174.842V301.25H183.362V300.183Z" fill="#3F3D56"/>
<path d="M195.077 300.183H186.557V301.25H195.077V300.183Z" fill="#3F3D56"/>
<path d="M206.791 300.183H198.271V301.25H206.791V300.183Z" fill="#3F3D56"/>
<path d="M316.217 359.931H66.4815C65.9168 359.931 65.3754 359.706 64.9761 359.306C64.5768 358.906 64.3522 358.363 64.3516 357.797V236.168C64.3522 235.602 64.5768 235.06 64.9761 234.66C65.3754 234.26 65.9168 234.035 66.4815 234.034H316.217C316.781 234.035 317.323 234.259 317.722 234.66C318.121 235.06 318.346 235.602 318.347 236.168V357.797C318.346 358.363 318.121 358.906 317.722 359.306C317.323 359.706 316.781 359.931 316.217 359.931ZM66.4815 236.168V357.797H316.218L316.217 236.168H66.4815Z" fill="#3F3D56"/>
<path d="M77.6636 254.305C79.4281 254.305 80.8585 252.872 80.8585 251.105C80.8585 249.337 79.4281 247.904 77.6636 247.904C75.8991 247.904 74.4687 249.337 74.4687 251.105C74.4687 252.872 75.8991 254.305 77.6636 254.305Z" fill="#3F3D56"/>
<path d="M88.8458 254.305C90.6103 254.305 92.0407 252.872 92.0407 251.105C92.0407 249.337 90.6103 247.904 88.8458 247.904C87.0813 247.904 85.6509 249.337 85.6509 251.105C85.6509 252.872 87.0813 254.305 88.8458 254.305Z" fill="#3F3D56"/>
<path d="M100.028 254.305C101.792 254.305 103.223 252.872 103.223 251.105C103.223 249.337 101.792 247.904 100.028 247.904C98.2635 247.904 96.8331 249.337 96.8331 251.105C96.8331 252.872 98.2635 254.305 100.028 254.305Z" fill="#3F3D56"/>
<path d="M215.045 307.652H143.159C142.736 307.651 142.33 307.483 142.03 307.182C141.731 306.882 141.562 306.476 141.562 306.051V287.914C141.562 287.489 141.731 287.083 142.03 286.782C142.33 286.482 142.736 286.314 143.159 286.313H215.045C215.468 286.314 215.874 286.482 216.174 286.782C216.473 287.083 216.642 287.489 216.642 287.914V306.051C216.642 306.476 216.473 306.882 216.174 307.182C215.874 307.483 215.468 307.651 215.045 307.652ZM143.159 287.38C143.018 287.38 142.883 287.437 142.783 287.537C142.683 287.637 142.627 287.772 142.627 287.914V306.051C142.627 306.193 142.683 306.328 142.783 306.428C142.883 306.528 143.018 306.585 143.159 306.585H215.045C215.186 306.585 215.321 306.528 215.421 306.428C215.521 306.328 215.577 306.193 215.577 306.051V287.914C215.577 287.772 215.521 287.637 215.421 287.537C215.321 287.437 215.186 287.38 215.045 287.38H143.159Z" fill="#3F3D56"/>
<path d="M233.149 308.185C238.443 308.185 242.734 303.886 242.734 298.583C242.734 293.28 238.443 288.981 233.149 288.981C227.856 288.981 223.564 293.28 223.564 298.583C223.564 303.886 227.856 308.185 233.149 308.185Z" fill="#A4BCFD"/>
<path d="M236.344 307.118C234.343 307.118 232.387 306.524 230.723 305.41C229.06 304.296 227.763 302.713 226.997 300.861C226.231 299.009 226.031 296.971 226.421 295.005C226.812 293.039 227.775 291.233 229.19 289.815C230.605 288.398 232.408 287.433 234.37 287.041C236.333 286.65 238.367 286.851 240.216 287.618C242.064 288.385 243.645 289.684 244.756 291.351C245.868 293.018 246.461 294.978 246.461 296.982C246.458 299.67 245.391 302.246 243.495 304.146C241.598 306.046 239.026 307.115 236.344 307.118ZM236.344 287.914C234.554 287.914 232.804 288.445 231.315 289.442C229.826 290.438 228.666 291.855 227.981 293.512C227.296 295.169 227.117 296.993 227.466 298.752C227.815 300.511 228.677 302.127 229.943 303.395C231.209 304.663 232.822 305.527 234.578 305.877C236.334 306.227 238.154 306.047 239.808 305.361C241.462 304.675 242.876 303.512 243.871 302.021C244.865 300.529 245.396 298.776 245.396 296.982C245.394 294.578 244.439 292.273 242.742 290.573C241.045 288.873 238.744 287.916 236.344 287.914Z" fill="#3F3D56"/>
<path d="M236.486 300.768L231.331 295.603L232.837 294.094L236.202 297.465L245.591 284.098L247.332 285.327L236.486 300.768Z" fill="#3F3D56"/>
<path opacity="0.1" d="M230.971 167.687H21.6141V27.1783L230.971 167.687Z" fill="black"/>
<path d="M308.281 164.921H282.028V163.026C282.028 162.977 282.019 162.928 282 162.882C281.981 162.837 281.953 162.795 281.918 162.76C281.884 162.726 281.842 162.698 281.797 162.679C281.751 162.66 281.703 162.65 281.653 162.65H272.652C272.603 162.65 272.554 162.66 272.509 162.679C272.463 162.698 272.422 162.726 272.387 162.76C272.352 162.795 272.325 162.837 272.306 162.882C272.287 162.928 272.277 162.977 272.277 163.026V164.921H266.652V163.026C266.652 162.977 266.642 162.928 266.623 162.882C266.604 162.837 266.577 162.795 266.542 162.76C266.507 162.726 266.466 162.698 266.42 162.679C266.375 162.66 266.326 162.65 266.277 162.65H257.276C257.227 162.65 257.178 162.66 257.132 162.679C257.087 162.698 257.045 162.726 257.011 162.76C256.976 162.795 256.948 162.837 256.929 162.882C256.91 162.928 256.901 162.977 256.901 163.026V164.921H251.275V163.026C251.275 162.977 251.266 162.928 251.247 162.882C251.228 162.837 251.2 162.795 251.165 162.76C251.131 162.726 251.089 162.698 251.044 162.679C250.998 162.66 250.949 162.65 250.9 162.65H241.899C241.85 162.65 241.801 162.66 241.756 162.679C241.71 162.698 241.669 162.726 241.634 162.76C241.599 162.795 241.572 162.837 241.553 162.882C241.534 162.928 241.524 162.977 241.524 163.026V164.921H235.899V163.026C235.899 162.977 235.889 162.928 235.87 162.882C235.851 162.837 235.824 162.795 235.789 162.76C235.754 162.726 235.713 162.698 235.667 162.679C235.622 162.66 235.573 162.65 235.524 162.65H226.523C226.473 162.65 226.425 162.66 226.379 162.679C226.334 162.698 226.292 162.726 226.258 162.76C226.223 162.795 226.195 162.837 226.176 162.882C226.157 162.928 226.148 162.977 226.148 163.026V164.921H220.522V163.026C220.522 162.977 220.512 162.928 220.494 162.882C220.475 162.837 220.447 162.795 220.412 162.76C220.377 162.726 220.336 162.698 220.291 162.679C220.245 162.66 220.196 162.65 220.147 162.65H211.146C211.097 162.65 211.048 162.66 211.003 162.679C210.957 162.698 210.916 162.726 210.881 162.76C210.846 162.795 210.819 162.837 210.8 162.882C210.781 162.928 210.771 162.977 210.771 163.026V164.921H205.146V163.026C205.146 162.977 205.136 162.928 205.117 162.882C205.098 162.837 205.071 162.795 205.036 162.76C205.001 162.726 204.96 162.698 204.914 162.679C204.869 162.66 204.82 162.65 204.771 162.65H195.77C195.72 162.65 195.672 162.66 195.626 162.679C195.581 162.698 195.539 162.726 195.504 162.76C195.47 162.795 195.442 162.837 195.423 162.882C195.404 162.928 195.395 162.977 195.395 163.026V164.921H189.769V163.026C189.769 162.977 189.759 162.928 189.741 162.882C189.722 162.837 189.694 162.795 189.659 162.76C189.624 162.726 189.583 162.698 189.538 162.679C189.492 162.66 189.443 162.65 189.394 162.65H118.887C118.838 162.65 118.789 162.66 118.743 162.679C118.698 162.698 118.657 162.726 118.622 162.76C118.587 162.795 118.559 162.837 118.54 162.882C118.522 162.928 118.512 162.977 118.512 163.026V164.921H112.886V163.026C112.886 162.977 112.877 162.928 112.858 162.882C112.839 162.837 112.811 162.795 112.776 162.76C112.742 162.726 112.7 162.698 112.655 162.679C112.609 162.66 112.561 162.65 112.511 162.65H103.51C103.461 162.65 103.412 162.66 103.367 162.679C103.321 162.698 103.28 162.726 103.245 162.76C103.21 162.795 103.183 162.837 103.164 162.882C103.145 162.928 103.135 162.977 103.135 163.026V164.921H97.5098V163.026C97.5098 162.977 97.5001 162.928 97.4812 162.882C97.4624 162.837 97.4348 162.795 97.3999 162.76C97.3651 162.726 97.3238 162.698 97.2783 162.679C97.2328 162.66 97.184 162.65 97.1348 162.65H88.1339C88.0846 162.65 88.0358 162.66 87.9903 162.679C87.9448 162.698 87.9035 162.726 87.8687 162.76C87.8338 162.795 87.8062 162.837 87.7874 162.882C87.7685 162.928 87.7588 162.977 87.7588 163.026V164.921H82.1332V163.026C82.1332 162.977 82.1236 162.928 82.1047 162.882C82.0859 162.837 82.0582 162.795 82.0234 162.76C81.9886 162.726 81.9472 162.698 81.9017 162.679C81.8562 162.66 81.8075 162.65 81.7582 162.65H72.7573C72.7081 162.65 72.6593 162.66 72.6138 162.679C72.5683 162.698 72.527 162.726 72.4921 162.76C72.4573 162.795 72.4297 162.837 72.4108 162.882C72.392 162.928 72.3823 162.977 72.3823 163.026V164.921H66.7567V163.026C66.7567 162.977 66.747 162.928 66.7282 162.882C66.7093 162.837 66.6817 162.795 66.6469 162.76C66.612 162.726 66.5707 162.698 66.5252 162.679C66.4797 162.66 66.4309 162.65 66.3817 162.65H57.3807C57.3315 162.65 57.2827 162.66 57.2372 162.679C57.1917 162.698 57.1504 162.726 57.1156 162.76C57.0807 162.795 57.0531 162.837 57.0343 162.882C57.0154 162.928 57.0057 162.977 57.0057 163.026V164.921H51.3802V163.026C51.3802 162.977 51.3705 162.928 51.3516 162.882C51.3328 162.837 51.3052 162.795 51.2703 162.76C51.2355 162.726 51.1942 162.698 51.1487 162.679C51.1032 162.66 51.0544 162.65 51.0051 162.65H42.0042C41.955 162.65 41.9062 162.66 41.8607 162.679C41.8152 162.698 41.7738 162.726 41.739 162.76C41.7042 162.795 41.6766 162.837 41.6577 162.882C41.6389 162.928 41.6292 162.977 41.6292 163.026V164.921H36.0036V163.026C36.0036 162.977 35.9939 162.928 35.9751 162.882C35.9562 162.837 35.9286 162.795 35.8938 162.76C35.8589 162.726 35.8176 162.698 35.7721 162.679C35.7266 162.66 35.6778 162.65 35.6286 162.65H26.6277C26.5784 162.65 26.5297 162.66 26.4841 162.679C26.4386 162.698 26.3973 162.726 26.3625 162.76C26.3277 162.795 26.3 162.837 26.2812 162.882C26.2623 162.928 26.2526 162.977 26.2526 163.026V164.921H9.0009C7.81889 164.921 6.64844 165.154 5.5564 165.607C4.46436 166.061 3.47211 166.725 2.6363 167.562C1.80049 168.4 1.13749 169.394 0.685151 170.488C0.232814 171.582 -6.99268e-07 172.754 0 173.939V178.016C5.64894e-06 180.408 0.948315 182.701 2.63631 184.392C4.32431 186.083 6.61372 187.033 9.0009 187.033H308.281C309.463 187.033 310.633 186.8 311.725 186.347C312.817 185.894 313.81 185.23 314.646 184.392C315.481 183.555 316.144 182.561 316.597 181.467C317.049 180.373 317.282 179.2 317.282 178.016V173.939C317.282 172.754 317.049 171.582 316.597 170.488C316.144 169.394 315.481 168.4 314.646 167.562C313.81 166.725 312.817 166.061 311.725 165.607C310.633 165.154 309.463 164.921 308.281 164.921Z" fill="#3F3D56"/>
<path d="M226.227 116.139H85.6509C85.2274 116.138 84.8213 115.969 84.5219 115.669C84.2224 115.369 84.0539 114.962 84.0535 114.538V55.8572C84.0539 55.4329 84.2224 55.0261 84.5219 54.7261C84.8213 54.4261 85.2274 54.2573 85.6509 54.2568H226.227C226.65 54.2573 227.057 54.4261 227.356 54.7261C227.655 55.0261 227.824 55.4329 227.824 55.8572V114.538C227.824 114.962 227.655 115.369 227.356 115.669C227.057 115.969 226.65 116.138 226.227 116.139ZM85.6509 55.3238C85.5098 55.3239 85.3744 55.3802 85.2746 55.4802C85.1748 55.5802 85.1186 55.7158 85.1184 55.8572V114.538C85.1186 114.68 85.1748 114.815 85.2746 114.915C85.3744 115.015 85.5098 115.071 85.6509 115.072H226.227C226.368 115.071 226.503 115.015 226.603 114.915C226.703 114.815 226.759 114.68 226.759 114.538V55.8572C226.759 55.7158 226.703 55.5802 226.603 55.4802C226.503 55.3802 226.368 55.3239 226.227 55.3238H85.6509Z" fill="#3F3D56"/>
<path d="M101.625 88.3985H95.2356C94.8121 88.398 94.4061 88.2293 94.1066 87.9292C93.8071 87.6292 93.6386 87.2224 93.6382 86.7981V80.3965C93.6386 79.9722 93.8071 79.5654 94.1066 79.2654C94.4061 78.9654 94.8121 78.7966 95.2356 78.7961H101.625C102.049 78.7966 102.455 78.9654 102.755 79.2654C103.054 79.5654 103.222 79.9722 103.223 80.3965V86.7981C103.222 87.2224 103.054 87.6292 102.755 87.9292C102.455 88.2293 102.049 88.398 101.625 88.3985ZM95.2356 79.8631C95.0945 79.8633 94.9591 79.9195 94.8593 80.0195C94.7595 80.1195 94.7033 80.2551 94.7032 80.3965V86.7981C94.7033 86.9395 94.7595 87.0751 94.8593 87.1751C94.9591 87.2751 95.0945 87.3314 95.2356 87.3316H101.625C101.767 87.3314 101.902 87.2751 102.002 87.1751C102.102 87.0751 102.158 86.9395 102.158 86.7981V80.3965C102.158 80.2551 102.102 80.1195 102.002 80.0195C101.902 79.9195 101.767 79.8633 101.625 79.8631H95.2356Z" fill="#3F3D56"/>
<path d="M215.577 87.3315H94.1707V88.3985H215.577V87.3315Z" fill="#3F3D56"/>
<path d="M531.341 143.879H141.029V144.946H531.341V143.879Z" fill="#3F3D56"/>
<path d="M141.029 151.347C145.146 151.347 148.484 148.003 148.484 143.879C148.484 139.754 145.146 136.41 141.029 136.41C136.912 136.41 133.575 139.754 133.575 143.879C133.575 148.003 136.912 151.347 141.029 151.347Z" fill="#3F3D56"/>
<path d="M531.341 150.814C534.576 150.814 537.198 148.186 537.198 144.945C537.198 141.705 534.576 139.077 531.341 139.077C528.106 139.077 525.483 141.705 525.483 144.945C525.483 148.186 528.106 150.814 531.341 150.814Z" fill="#3F3D56"/>
<path d="M560.095 268.709C563.33 268.709 565.952 266.082 565.952 262.841C565.952 259.6 563.33 256.973 560.095 256.973C556.86 256.973 554.238 259.6 554.238 262.841C554.238 266.082 556.86 268.709 560.095 268.709Z" fill="#3F3D56"/>
<path d="M171.381 268.709C174.616 268.709 177.238 266.082 177.238 262.841C177.238 259.6 174.616 256.973 171.381 256.973C168.146 256.973 165.524 259.6 165.524 262.841C165.524 266.082 168.146 268.709 171.381 268.709Z" fill="#3F3D56"/>
</g>
<defs>
<clipPath id="clip0_1_58">
<rect width="586" height="369" fill="white"/>
</clipPath>
</defs>
</svg>
